# xmcd
#
# Track frame offsets:
#	150
#	13253
#	30068
#	41249
#	55197
#	75050
#	88669
#	102705
#	116800
#	134034
#	146334
#	153107
#	165728
#	179340
#
# Disc length: 2644 seconds
#
# Revision: 0
# Processed by: cddbd v1.5.2PL0 Copyright (c) Steve Scherf et al.
# Submitted via: dBpowerAMP V4.0
#
DISCID=b10a520e
DTITLE=Johnny Mastro and Mama's Boys - Take Me To Your Maker
DYEAR=2007
DGENRE=Blues
TTITLE0=Throwdown
TTITLE1=Down in NO
TTITLE2=CFB
TTITLE3=Take Your Time
TTITLE4=8ball
TTITLE5=Wonder Boogie
TTITLE6=Ghetto Woman
TTITLE7=Shade Your Woman
TTITLE8=Demon's Blues
TTITLE9=What Have I Done Wrong
TTITLE10=Bottle Gone Boogie
TTITLE11=Angel Rollon
TTITLE12=Changes Comin Down
TTITLE13=Lonesome Whistle
EXTD=
EXTT0=
EXTT1=
EXTT2=
EXTT3=
EXTT4=
EXTT5=
EXTT6=
EXTT7=
EXTT8=
EXTT9=
EXTT10=
EXTT11=
EXTT12=
EXTT13=
PLAYORDER=
